<?xml version="1.0" encoding="utf-8"?>
<!-- Generator: Adobe Illustrator 23.0.4, SVG Export Plug-In . SVG Version: 6.00 Build 0)  -->
<svg version="1.1" id="Layer_1" xmlns="http://www.w3.org/2000/svg" xmlns:xlink="http://www.w3.org/1999/xlink" x="0px" y="0px"
	 viewBox="0 0 31 50" style="enable-background:new 0 0 31 50;" xml:space="preserve">
<style type="text/css">
	.st0{fill:#C0C0C0;}
</style>
<title>Path</title>
<desc>Created with Sketch.</desc>
<g id="Page-1">
	<g transform="translate(-644.000000, -127.000000)">
		<path id="Path" class="st0" d="M644,149.6v4.8c0,1.3,0.5,2.6,1.5,3.5c2,1.9,5.2,1.8,7.1-0.2l3.6-3.6c0.5-0.5,1.3-0.5,1.8,0
			c0.5,0.5,0.5,1.3,0,1.8l-2.8,2.8c-2.5,2.5-3.6,6.1-2.9,9.5c0.4,2.2,1.3,4.3,2.5,6.1c1.1,1.6,2.9,2.6,4.8,2.6l0,0
			c2,0,3.9-0.8,5.3-2.2l0,0c0.6-0.6,1.1-1.2,1.5-2c0.6-1.3,0.9-2.6,0.9-4v-0.9c0-1-0.4-2-1.2-2.8c-0.4-0.4-1-0.6-1.5-0.6
			s-1.1,0.2-1.5,0.6l-2.4,2.4c-0.3,0.3-0.5,0.8-0.5,1.2c0,0.3,0.1,0.6,0.3,0.8s0.5,0.3,0.8,0.3h0.3c0.3,0,0.6-0.1,0.8-0.3l1.4-1.1
			v0.6c0,0.5-0.2,0.9-0.5,1.3l-0.4,0.4c-0.5,0.6-1.3,0.9-2.1,0.9h-0.6c-1,0-1.8-0.8-1.8-1.8v-1.5c0-1.2,0.5-2.3,1.3-3.2l0.9-1
			c0.9-0.9,2.1-1.5,3.4-1.4c1,0,2-0.4,2.7-1.1l0.6-0.7c1.2-1.2,2.3-2.4,3.3-3.8l2.1-2.8c0.4-0.5,0.8-1.1,1.1-1.8
			c1.6-3.6,0.5-7.9-2.5-10.4l-2.6-2.1c-2.2-1.7-4.8-2.3-7.6-2.4c-0.5,0-0.9-0.4-0.9-0.9c0-0.5,0.4-0.9,0.9-0.9h9
			c0.7,0,1.3-0.3,1.8-0.8s0.8-1.1,0.8-1.8c0-0.3-0.2-0.6-0.5-0.6l-3.2-0.8c-1.1-0.2-2-0.8-2.7-1.7l-0.7-0.9c-1-1.4-2.6-2.2-4.3-2.3
			s-3.4,0.5-4.6,1.7c-1.2,1.2-2.1,2.7-2.7,4.3l-0.3,1c-0.4,1.2-0.6,2.5-0.6,3.9v0.6c0,2.9,1.2,5.7,3.2,7.7c0.5,0.5,0.5,1.3,0,1.8
			c-0.5,0.5-1.3,0.5-1.8,0l-1.8-1.8c-1.9-2-5.1-2-7.1-0.2C644.6,147,644,148.3,644,149.6z"/>
	</g>
</g>
</svg>
