<?xml version="1.0" encoding="utf-8"?>
<!-- Generator: Adobe Illustrator 23.0.4, SVG Export Plug-In . SVG Version: 6.00 Build 0)  -->
<svg version="1.1" id="Layer_1" xmlns="http://www.w3.org/2000/svg" xmlns:xlink="http://www.w3.org/1999/xlink" x="0px" y="0px"
	 viewBox="0 0 50 50" style="enable-background:new 0 0 50 50;" xml:space="preserve">
<style type="text/css">
	.st0{fill:#C0C0C0;}
</style>
<title>Group</title>
<desc>Created with Sketch.</desc>
<g id="Page-1">
	<g transform="translate(-502.000000, -127.000000)">
		<g id="Group" transform="translate(502.000000, 127.000000)">
			<path id="Path" class="st0" d="M25,0.4c-3.3,0-7.9,5.2-9.5,12.3c-1.2,1-2.3,1.6-3,1.9C11.3,15,11,14.8,11,14.8
				c-0.1-0.1-0.4-0.4-0.5-1.6s0.1-3.1,0.8-5.3c0-0.1,0-0.2,0.1-0.2c0,0,3.8-3.2,2.9-4.4C13.3,2,12,5.4,11,4.6
				c-1.1-0.8,0.9-3.8-0.4-4.2C9.3,0.1,9.5,3.7,8.2,3.8C6.9,3.9,7.4,0.4,6,0.9C4.6,1.5,6.4,6.3,6.4,6.3c-0.8,2.7-1.2,5.1-1,7.3
				c0.2,2.2,0.9,4.3,2.7,5.6c1.8,1.3,4.1,1.2,6.2,0.4c0.2-0.1,0.4-0.2,0.6-0.3c0,2.7,0.1,5.2,0.4,7.4c-1.4-0.4-2.8-0.6-4.2-0.7
				c-2.1,0-4.7,0.5-6.1,2.9c-0.7,1.2-0.9,2.8-0.6,4c0.3,1.2,1,2.1,1.7,2.8c1.3,1.5,2.9,2.5,4.4,3.5c1.5,1,2.9,2,3.5,2.7
				c-0.1,0.1-0.1,0.2-1,0.3c-1.3,0.1-3.2-0.1-4.8-0.4l0,0l0,0c0,0-3.9-4.3-5.2-3.2c-1.3,1.2,2.6,2.5,1.8,3.9C3.9,44,0.3,41.9,0,43.4
				c-0.3,1.6,3.8,1,4,2.6c0.2,1.5-3.9,1.3-3.1,2.9c0.8,1.6,6-0.9,6-0.9c2,0.4,4.3,0.7,6.5,0.5s5.1-1.1,6.3-3.9
				c0.6-1.3,0.6-2.8,0.2-4c-0.4-1.2-1-2.1-1.7-2.8c-1.4-1.5-3-2.5-4.5-3.6c-1.1-0.7-1.8-1.3-2.4-1.9c1.1,0.1,2.5,0.3,3.9,0.8
				c0,0,5,1.8,9.7,1.8s9.7-1.8,9.7-1.8c1.5-0.5,2.9-0.7,3.9-0.8c-0.7,0.6-1.4,1.2-2.4,1.9c-1.5,1-3.1,2.1-4.5,3.6
				c-0.7,0.7-1.3,1.6-1.7,2.8c-0.4,1.2-0.4,2.8,0.2,4c1.3,2.8,4,3.7,6.3,3.9s4.5-0.1,6.5-0.5c0,0,5.2,2.5,6,0.9
				c0.8-1.6-3.3-1.3-3.1-2.9c0.2-1.5,4.3-1,4-2.6c-0.3-1.6-3.9,0.5-4.7-0.8c-0.8-1.3,3.1-2.7,1.8-3.9c-1.3-1.2-5.2,3.2-5.2,3.2l0,0
				c-1.7,0.3-3.6,0.5-4.8,0.4c-0.9-0.1-0.9-0.2-1-0.3c0.6-0.7,2-1.7,3.5-2.7c1.5-1,3.1-2.1,4.4-3.5c0.7-0.7,1.3-1.6,1.7-2.8
				c0.3-1.2,0.1-2.9-0.6-4c-1.4-2.4-4-3-6.1-2.9c-1.4,0-2.8,0.3-4.2,0.7c0.3-2.2,0.4-4.7,0.4-7.4c0.2,0.1,0.4,0.2,0.6,0.3
				c2.1,0.8,4.4,0.8,6.2-0.4c1.8-1.3,2.5-3.4,2.7-5.6c0.2-2.2-0.2-4.6-1-7.3c0,0,1.8-4.7,0.4-5.3c-1.4-0.6-0.9,3-2.2,2.9
				c-1.3-0.1-1.1-3.7-2.4-3.4c-1.3,0.4,0.7,3.4-0.4,4.2C38,5.4,36.7,2,35.7,3.2c-0.9,1.2,2.9,4.4,2.9,4.4c0,0.1,0,0.2,0.1,0.2
				c0.7,2.2,0.9,4.1,0.8,5.3c-0.1,1.2-0.4,1.5-0.5,1.6c-0.1,0.1-0.3,0.2-1.5-0.2c-0.8-0.3-1.8-0.9-3-1.9C32.9,5.6,28.3,0.4,25,0.4
				L25,0.4z"/>
		</g>
	</g>
</g>
</svg>
