<?xml version="1.0" encoding="utf-8"?>
<!-- Generator: Adobe Illustrator 23.0.4, SVG Export Plug-In . SVG Version: 6.00 Build 0)  -->
<svg version="1.1" id="Layer_1" xmlns="http://www.w3.org/2000/svg" xmlns:xlink="http://www.w3.org/1999/xlink" x="0px" y="0px"
	 viewBox="0 0 50 50" style="enable-background:new 0 0 50 50;" xml:space="preserve">
<style type="text/css">
	.st0{fill:#C0C0C0;}
</style>
<title>Shape</title>
<desc>Created with Sketch.</desc>
<g id="Page-1">
	<g transform="translate(-267.000000, -127.000000)">
		<path id="Shape" class="st0" d="M267.8,148.9l8.9,9.1c0.7,0.7,1,1.7,0.8,2.6l-2.1,12.9c-0.1,1.1,0.3,2.2,1.2,2.9
			c0.9,0.7,2,0.8,3,0.3l11.1-6.1c0.8-0.5,1.8-0.5,2.7,0l11.1,6.1c1,0.5,2.1,0.4,3-0.3c0.9-0.7,1.3-1.8,1.2-2.9l-2.1-12.9
			c-0.1-1,0.2-2,0.8-2.6l8.9-9.1c0.7-0.8,1-2,0.6-3c-0.3-1.1-1.2-1.8-2.2-2l-12.4-1.9c-0.9-0.2-1.7-0.8-2.2-1.6l-5.5-11.7
			c-0.5-1-1.5-1.6-2.6-1.6c-1.1,0-2.1,0.6-2.6,1.6l-5.5,11.7c-0.4,0.9-1.2,1.5-2.2,1.6l-12.4,1.9c-1.1,0.2-1.9,1-2.3,2
			C266.8,146.9,267.1,148.1,267.8,148.9z M311.8,146.5c0.6-0.1,1.1,0.2,1.3,0.8c0.1,0.6-0.2,1.2-0.8,1.3c-0.6,0.1-1.1-0.2-1.3-0.8
			c-0.1-0.3,0-0.6,0.1-0.8C311.3,146.7,311.5,146.5,311.8,146.5L311.8,146.5z M307,147.6c0.6-0.1,1.1,0.2,1.3,0.8
			c0.1,0.6-0.2,1.2-0.8,1.3c-0.6,0.1-1.1-0.2-1.3-0.8c-0.1-0.3,0-0.6,0.1-0.8S306.8,147.7,307,147.6L307,147.6z M305.4,171.5
			c0.3,0.5,0.2,1.2-0.3,1.5s-1.1,0.2-1.5-0.3c-0.3-0.5-0.2-1.2,0.3-1.5c0.2-0.2,0.5-0.2,0.8-0.2C305,171.1,305.3,171.3,305.4,171.5z
			 M302.3,148.8c0.6-0.1,1.1,0.2,1.3,0.8s-0.2,1.2-0.8,1.3s-1.1-0.2-1.3-0.8c-0.1-0.3,0-0.6,0.1-0.8
			C301.8,149,302,148.9,302.3,148.8z M301.2,167c0.5-0.3,1.1-0.2,1.5,0.3s0.2,1.2-0.3,1.5c-0.5,0.3-1.1,0.2-1.5-0.3
			C300.6,168,300.7,167.4,301.2,167L301.2,167z M298.5,162.9c0.5-0.3,1.1-0.2,1.5,0.3s0.2,1.2-0.3,1.5c-0.5,0.3-1.1,0.2-1.5-0.3
			c-0.2-0.2-0.2-0.5-0.2-0.8S298.2,163,298.5,162.9z M292,131.5c0.6,0,1.1,0.5,1.1,1.1s-0.5,1.1-1.1,1.1s-1.1-0.5-1.1-1.1
			S291.4,131.5,292,131.5z M292,136.6c0.6,0,1.1,0.5,1.1,1.1s-0.5,1.1-1.1,1.1s-1.1-0.5-1.1-1.1S291.4,136.6,292,136.6z M292,141.6
			c0.6,0,1.1,0.5,1.1,1.1s-0.5,1.1-1.1,1.1s-1.1-0.5-1.1-1.1S291.4,141.6,292,141.6z M292,151.3c1.6,0,2.9,1.4,2.9,3
			c0,1.7-1.3,3-2.9,3c-1.6,0-2.9-1.4-2.9-3C289.1,152.7,290.4,151.4,292,151.3L292,151.3z M284.1,163.1c0.3-0.5,1-0.6,1.5-0.3
			c0.5,0.3,0.6,1,0.3,1.5s-1,0.6-1.5,0.3c-0.2-0.2-0.4-0.4-0.4-0.7S284,163.4,284.1,163.1z M283.1,168.6c-0.3,0.5-1,0.6-1.5,0.3
			c-0.5-0.3-0.6-1-0.3-1.5s1-0.6,1.5-0.3c0.2,0.2,0.4,0.4,0.4,0.7S283.3,168.4,283.1,168.6L283.1,168.6z M280.5,149.6
			c0.1-0.6,0.7-1,1.3-0.8c0.6,0.1,0.9,0.7,0.8,1.3c-0.1,0.6-0.7,1-1.3,0.8c-0.3-0.1-0.5-0.2-0.7-0.5
			C280.4,150.2,280.4,149.9,280.5,149.6L280.5,149.6z M278.6,171.5c0.3-0.5,1-0.6,1.5-0.3c0.5,0.3,0.6,1,0.3,1.5s-1,0.6-1.5,0.3
			c-0.2-0.2-0.4-0.4-0.4-0.7C278.4,172.1,278.5,171.8,278.6,171.5z M275.7,148.5c0.1-0.6,0.7-1,1.3-0.8c0.6,0.1,0.9,0.7,0.8,1.3
			c-0.1,0.6-0.7,1-1.3,0.8c-0.3-0.1-0.5-0.2-0.7-0.5C275.7,149.1,275.6,148.7,275.7,148.5L275.7,148.5z M271,147.3
			c0.1-0.6,0.7-1,1.3-0.8s0.9,0.7,0.8,1.3s-0.7,1-1.3,0.8c-0.3-0.1-0.5-0.2-0.7-0.5C270.9,147.9,270.9,147.6,271,147.3L271,147.3z"
			/>
	</g>
</g>
</svg>
