<?xml version="1.0" encoding="utf-8"?>
<!-- Generator: Adobe Illustrator 23.0.4, SVG Export Plug-In . SVG Version: 6.00 Build 0)  -->
<svg version="1.1" id="Layer_1" xmlns="http://www.w3.org/2000/svg" xmlns:xlink="http://www.w3.org/1999/xlink" x="0px" y="0px"
	 viewBox="0 0 50 50" style="enable-background:new 0 0 50 50;" xml:space="preserve">
<style type="text/css">
	.st0{fill:#C0C0C0;}
</style>
<title>Group</title>
<desc>Created with Sketch.</desc>
<g id="Page-1">
	<g transform="translate(-426.000000, -127.000000)">
		<g id="Group" transform="translate(426.000000, 127.000000)">
			<path id="Path" class="st0" d="M0.5,2.3l1.1,5.5c1.4,6.7,5,12.8,10.3,17.2c3,2.5,7.3,3.2,10.9,1.6c0.3-0.1,0.6,0,0.7,0.2
				s0.1,0.6-0.1,0.8l-5.2,5.1L11,39.9c-0.9,0.9-1.4,2.2-1.3,3.5c0.1,1.3,0.8,2.5,1.9,3.2l4.5,3c0.4,0.3,1,0.3,1.4,0.1
				c0.5-0.2,0.8-0.6,0.9-1.1l1.2-7.4c0-0.1,0.1-0.2,0.3-0.2c0.1,0,0.2,0.1,0.3,0.2l1.1,4.5c0.1,0.2,0.3,0.4,0.5,0.4
				c0.2,0,0.5-0.1,0.6-0.3l0.7-1.4c0.3-0.5,0.3-1.1,0.2-1.7l-1.3-5.1c-0.1-0.3,0-0.7,0.2-0.9c0.2-0.3,0.5-0.4,0.8-0.4h1.7
				c2.8,0,5.6-0.3,8.3-0.8l0.7-0.1c2.8-0.6,5.3-1.9,7.3-3.9c3.6-3.6,5-8.9,3.6-13.8c-0.8-3-1.2-6.1-1.2-9.2l0,0c0-3,1.7-5.7,4.3-7
				l1.8-0.9c0.1-0.1,0.2-0.2,0.1-0.3S49.8,0,49.7,0H41c-1.7,0-3.2,0.6-4.4,1.8c-1.3,1.2-2.4,2.7-3.2,4.3l-3.2,6.5
				c-0.6,1.1-1.9,1.6-3,1L2.1,1.1C1.7,0.9,1.3,0.9,0.9,1.2S0.4,1.9,0.5,2.3z"/>
			<path class="st0" d="M18.2,2.6v2.1c0,1.6,0.9,3.1,2.4,3.8l6.1,3.1c1,0.5,2.2,0.1,2.7-0.8c0.5-0.9,0.3-2.1-0.6-2.7l-8.5-6.4
				c-0.4-0.3-0.9-0.3-1.3-0.1S18.2,2.1,18.2,2.6L18.2,2.6z"/>
			<path class="st0" d="M14,32.7H8.6c-0.3,0-0.6,0.1-0.8,0.4c-0.2,0.3-0.2,0.6-0.1,0.9l1,3c0.1,0.3,0.3,0.5,0.6,0.5
				c0.3,0.1,0.6,0,0.8-0.1l4.4-3.5c0.2-0.2,0.3-0.4,0.2-0.7C14.5,32.9,14.3,32.7,14,32.7z"/>
		</g>
	</g>
</g>
</svg>
