<?xml version="1.0" encoding="utf-8"?>
<!-- Generator: Adobe Illustrator 23.0.4, SVG Export Plug-In . SVG Version: 6.00 Build 0)  -->
<svg version="1.1" id="Layer_1" xmlns="http://www.w3.org/2000/svg" xmlns:xlink="http://www.w3.org/1999/xlink" x="0px" y="0px"
	 viewBox="0 0 50 50" style="enable-background:new 0 0 50 50;" xml:space="preserve">
<style type="text/css">
	.st0{fill:#C0C0C0;}
</style>
<title>Group</title>
<desc>Created with Sketch.</desc>
<g id="Page-1">
	<g transform="translate(-571.000000, -127.000000)">
		<g id="Group" transform="translate(571.000000, 127.000000)">
			<path id="Path" class="st0" d="M34.2,48.1l9.3,1.9c0.1,0,0.2,0,0.2,0c0.4,0,0.7-0.2,1-0.5c0.2-0.3,0.3-0.7,0.2-1.1l-2.3-9.9
				C40.2,42.1,37.4,45.3,34.2,48.1z"/>
			<path class="st0" d="M7.4,38.6L5,48.5c-0.1,0.4,0,0.8,0.2,1.1c0.2,0.3,0.6,0.5,1,0.5c0.1,0,0.2,0,0.2,0l9.3-1.9
				C12.6,45.3,9.8,42.1,7.4,38.6L7.4,38.6z"/>
			<path id="Shape" class="st0" d="M50,16.2C50,7.3,38.8,0,25,0S0,7.3,0,16.2C0,25.3,15.5,50,25,50S50,25.3,50,16.2z M36.3,25.9
				l3.8-11.2c0.2-0.7,0.9-1,1.6-0.8c0.7,0.2,1,0.9,0.8,1.6l-3.8,11.2c-0.2,0.7-0.9,1-1.6,0.8C36.5,27.2,36.1,26.5,36.3,25.9z
				 M12.9,27.4c-0.3,0.1-0.7,0.1-1-0.1s-0.5-0.4-0.6-0.7L7.6,15.4c-0.2-0.7,0.1-1.4,0.8-1.6s1.4,0.1,1.6,0.8l3.8,11.2
				C13.9,26.5,13.6,27.2,12.9,27.4L12.9,27.4z M19.5,35c-0.1,0-0.1,0-0.2,0c-0.6,0-1.2-0.5-1.2-1.1l-3-24c-0.1-0.4,0.1-0.9,0.5-1.2
				c0.4-0.3,0.8-0.3,1.3-0.2c0.4,0.2,0.7,0.6,0.8,1l3,24C20.7,34.3,20.2,34.9,19.5,35z M26.2,36.2c0,0.7-0.6,1.2-1.2,1.2
				s-1.2-0.6-1.2-1.2V8.8c0-0.7,0.6-1.2,1.2-1.2s1.2,0.6,1.2,1.2V36.2z M31.9,33.9c-0.1,0.6-0.6,1.1-1.2,1.1c-0.1,0-0.1,0-0.2,0
				c-0.7-0.1-1.2-0.7-1.1-1.4l3-24c0.1-0.4,0.3-0.8,0.8-1s0.9-0.1,1.2,0.2s0.5,0.7,0.5,1.2L31.9,33.9z"/>
		</g>
	</g>
</g>
</svg>
