<?xml version="1.0" encoding="utf-8"?>
<!-- Generator: Adobe Illustrator 23.0.4, SVG Export Plug-In . SVG Version: 6.00 Build 0)  -->
<svg version="1.1" id="Layer_1" xmlns="http://www.w3.org/2000/svg" xmlns:xlink="http://www.w3.org/1999/xlink" x="0px" y="0px"
	 viewBox="0 0 50 50" style="enable-background:new 0 0 50 50;" xml:space="preserve">
<style type="text/css">
	.st0{fill:#C0C0C0;}
</style>
<title>Group</title>
<desc>Created with Sketch.</desc>
<g id="Page-1">
	<g transform="translate(-187.000000, -127.000000)">
		<g id="Group" transform="translate(187.000000, 127.000000)">
			<path id="Path" class="st0" d="M38.3,43.7l7.6,5c0.8,0.6,1.9,0.6,2.8,0.1c0.9-0.5,1.4-1.4,1.4-2.4c0-5.1-1.6-10-4.6-14.2
				L34.3,16.6c-0.1-0.2-0.4-0.4-0.6-0.3c-0.2,0.1-0.4,0.4-0.3,0.6c0.2,1.5,0.2,2.9,0.2,4.4c0,2.9-0.3,5.8-0.9,8.6
				C31.5,35.1,33.7,40.7,38.3,43.7L38.3,43.7z"/>
			<path class="st0" d="M19.9,21.3L19.9,21.3c0,0.8,0,1.5,0.1,2.3c0,0.4,0.1,0.7,0.1,1.1c0,0.4,0.1,0.8,0.1,1.1c0,0.4,0.1,1,0.2,1.4
				c0,0.2,0.1,0.4,0.1,0.7c0.1,0.6,0.2,1.1,0.4,1.7c0,0.1,0,0.2,0.1,0.3c0.1,0.6,0.3,1.2,0.5,1.8v0.1c0.5,1.7,1.3,3.3,2.2,4.8l0,0
				c0.1,0.1,0.1,0.2,0.2,0.3c0.4,0.6,1,0.9,1.6,0.9s1.3-0.3,1.6-0.9c0.1-0.1,0.1-0.2,0.2-0.3l0,0c0.9-1.5,1.6-3.1,2.2-4.8v-0.1
				c0.2-0.6,0.4-1.1,0.5-1.8c0-0.1,0-0.2,0.1-0.3c0.1-0.5,0.3-1.1,0.4-1.7c0-0.2,0.1-0.4,0.1-0.7c0.1-0.5,0.2-0.9,0.2-1.4
				s0.1-0.8,0.1-1.1c0-0.4,0.1-0.7,0.1-1.1c0-0.8,0.1-1.5,0.1-2.3l0,0c0-1.4-0.1-2.8-0.2-4.1c-0.1-1.3-0.4-2.6-0.6-3.8
				c-0.3-1.6-1.8-2.8-3.4-2.8h-2.5c-1.7,0-3.1,1.1-3.5,2.7c-0.4,1.9-0.7,3.9-0.8,5.9C19.9,19.8,19.9,20.5,19.9,21.3z"/>
			<path class="st0" d="M5.1,48.7l7.6-5c4.6-3,6.8-8.5,5.5-13.9c-0.6-2.8-0.9-5.7-0.9-8.6c0-1.5,0.1-2.9,0.2-4.4
				c0.1-0.2,0-0.5-0.3-0.6c-0.2-0.1-0.5,0-0.6,0.3L5.4,32.2c-3,4.1-4.5,9.1-4.6,14.2c0,1,0.5,1.9,1.4,2.4
				C3.2,49.3,4.2,49.2,5.1,48.7L5.1,48.7z"/>
			<path class="st0" d="M20.9,5.5c-1.2,1.4,0.1,3.3,2.4,3.3h4.2c2.2,0,3.6-1.9,2.4-3.3c-1.2-1.3-2.8-2-4.5-2S22.1,4.2,20.9,5.5
				L20.9,5.5z"/>
			<path class="st0" d="M13.7,11.6l3.5,1.8c0.4,0.2,0.9,0,1.2-0.4c0.2-0.4,0-0.9-0.4-1.2L14.5,10c-0.8-0.4-1.3-1.2-1.3-2.1V3.8
				c0-0.8-0.3-1.6-0.9-2.1l-1.1-1.1c-0.3-0.3-0.9-0.3-1.3,0c-0.3,0.3-0.3,0.9,0,1.3L11,2.9c0.2,0.2,0.4,0.5,0.4,0.9v4.1
				C11.4,9.5,12.3,10.9,13.7,11.6L13.7,11.6z"/>
			<path class="st0" d="M9.4,17.5c-1.2,0-2.4,0.6-3,1.6l-2,3c-0.3,0.4-0.7,0.6-1.2,0.6H2.3c-0.5,0-0.9,0.4-0.9,0.9
				c0,0.5,0.4,0.9,0.9,0.9h0.9c1.1,0,2-0.5,2.6-1.4l2-3c0.3-0.5,0.9-0.9,1.6-0.9h1.1c0.5,0,0.9-0.4,0.9-0.9c0-0.5-0.4-0.9-0.9-0.9
				L9.4,17.5z"/>
			<path class="st0" d="M32.5,12.9c0.2,0.4,0.7,0.6,1.2,0.4l3.5-1.8c1.4-0.7,2.3-2.1,2.3-3.7V3.8c0-0.3,0.1-0.6,0.4-0.9L41,1.8
				c0.3-0.3,0.3-0.9,0-1.2c-0.3-0.3-0.8-0.3-1.2,0l-1.1,1.1C38,2.2,37.7,3,37.7,3.8v4.1c0,0.9-0.5,1.7-1.3,2.1l-3.5,1.8
				C32.5,12,32.3,12.5,32.5,12.9z"/>
			<path class="st0" d="M48.6,22.8h-0.9c-0.5,0-0.9-0.2-1.2-0.6l-2-3c-0.7-1-1.8-1.6-3.1-1.6h-0.3c-0.5,0-0.9,0.4-0.9,0.9
				s0.4,0.9,0.9,0.9h0.3c0.6,0,1.2,0.3,1.6,0.9l2,3c0.6,0.9,1.6,1.4,2.6,1.4h0.9c0.5,0,0.9-0.4,0.9-0.9
				C49.5,23.2,49.1,22.8,48.6,22.8L48.6,22.8z"/>
		</g>
	</g>
</g>
</svg>
