<?xml version="1.0" encoding="utf-8"?>
<!-- Generator: Adobe Illustrator 23.0.4, SVG Export Plug-In . SVG Version: 6.00 Build 0)  -->
<svg version="1.1" id="Layer_1" xmlns="http://www.w3.org/2000/svg" xmlns:xlink="http://www.w3.org/1999/xlink" x="0px" y="0px"
	 viewBox="0 0 50 50" style="enable-background:new 0 0 50 50;" xml:space="preserve">
<style type="text/css">
	.st0{fill:#C0C0C0;}
</style>
<title>Group</title>
<desc>Created with Sketch.</desc>
<g id="Page-1">
	<g transform="translate(-700.000000, -127.000000)">
		<g id="Group" transform="translate(700.000000, 127.000000)">
			<path id="Path" class="st0" d="M45.4,0.1l-5.5,1.2c-1.2,0.3-2.4,0.6-3.5,1.1L26,7l-2,1c-0.7,0.3-1.3,1-1.4,1.7v0.2l6-2.2
				c1-0.4,1.9-0.7,2.9-0.9l5-1.4L34,7h1.2C35.7,7,36,7.3,36,7.7v2.1c0,1.8-0.6,3.6-1.8,5.1c-1.4,1.7-3.5,2.9-5.8,3.2l-1.5,0.2
				c-4.5,0.7-9.2,0.7-13.7,0.2l0,0c-2.7-0.3-5.2,1.1-6,3.3c-0.6,1.8-0.6,3.7,0,5.5c0.6,1.6,0.6,3.4,0,5c-0.7,1.8-0.9,3.7-0.5,5.6
				l2,10.5c0.1,0.4,0.5,0.7,0.9,0.7c0.2,0,0.4-0.1,0.6-0.2s0.2-0.3,0.2-0.5L10,36.4c0-0.8,0.4-1.6,1-2.1l2-1.8c0.7-0.6,1-1.4,1-2.2
				c0-0.1,0.1-0.2,0.2-0.3c0.1-0.1,0.2-0.1,0.4-0.1l6.6,1c3.2,0.5,6.4,0.2,9.5-0.7c0.3-0.1,0.6,0,0.9,0.1s0.4,0.5,0.3,0.7l-0.6,4
				l-1.2,13c0,0.3,0.1,0.5,0.3,0.7c0.2,0.2,0.5,0.3,0.8,0.3c0.2,0,0.3-0.1,0.4-0.3l1.5-8c0.7-3.8,2.1-7.4,4.3-10.8l2.1-3.3
				c1.7-2.6,3-5.4,3.9-8.4l0.3-0.9c0.2-0.8,0.4-1.6,0.4-2.4c0-1.9-0.3-3.8-0.9-5.6l-0.7-2.3c-0.3-0.8,0-1.7,0.6-2.4l2.1-2.2
				C45.7,2.1,46,1.3,46,0.6c0-0.1-0.1-0.3-0.2-0.3S45.5,0.1,45.4,0.1z"/>
			<path class="st0" d="M42.1,38.4C42,38.5,42,38.7,42,38.9l0.1,0.8l6.5-8.1c0.8-1,0.6-2.4-0.5-3.2L43.8,25
				c-0.1-0.1-0.3-0.1-0.5-0.1c-0.2,0-0.3,0.1-0.4,0.3L40.5,29c-0.1,0.2-0.1,0.4,0,0.5c0.1,0.2,0.3,0.3,0.5,0.3l3.8,0.6
				c0.3,0.1,0.5,0.2,0.7,0.4s0.2,0.5,0.1,0.7L42.1,38.4z"/>
			<path class="st0" d="M21.6,49.1c0.1,0,0.3-0.1,0.3-0.2c0.1-0.1,0.1-0.2,0.1-0.3L17,36c-0.2-0.5-0.1-1.1,0.4-1.5
				c0.4-0.4,0.6-0.9,0.6-1.4l0,0c0-0.3-0.3-0.6-0.6-0.6l0,0c-1.2,0-2.2,0.5-3,1.2l-0.8,0.8c-0.4,0.4-0.4,0.9-0.2,1.4L20,48.2
				C20.3,48.8,20.9,49.1,21.6,49.1z"/>
			<path class="st0" d="M7.6,19l0.8-0.5l-3.5,0.3c-2.1,0.2-3.8,1.5-4.2,3.3l-0.3,1.4c-0.2,0.8,0,1.5,0.6,2.1l0.5,0.6
				c0.2,0.2,0.4,0.3,0.7,0.3s0.5-0.1,0.7-0.3l0.8-0.9C3.8,24.8,4,24.3,4,23.8c0-0.6,0.3-1.2,0.8-1.7l0.5-0.4
				c0.5-0.4,0.8-0.9,1.1-1.4C6.7,19.8,7.1,19.3,7.6,19L7.6,19z"/>
		</g>
	</g>
</g>
</svg>
