<?xml version="1.0" encoding="utf-8"?>
<!-- Generator: Adobe Illustrator 23.0.4, SVG Export Plug-In . SVG Version: 6.00 Build 0)  -->
<svg version="1.1" id="Layer_1" xmlns="http://www.w3.org/2000/svg" xmlns:xlink="http://www.w3.org/1999/xlink" x="0px" y="0px"
	 viewBox="0 0 50 50" style="enable-background:new 0 0 50 50;" xml:space="preserve">
<style type="text/css">
	.st0{fill:#C0C0C0;}
</style>
<title>Group</title>
<desc>Created with Sketch.</desc>
<g id="Page-1">
	<g transform="translate(-343.000000, -127.000000)">
		<g id="Group" transform="translate(343.000000, 127.000000)">
			<path id="Path" class="st0" d="M37,45.1c-0.2-0.3-0.6-0.4-0.9-0.4c-0.3,0-0.7,0.2-0.9,0.5c-0.8,1.2-1.7,2.2-2.7,3.2l0,0
				c1.3,1,2.9,1.6,4.5,1.6c0.8,0,1.5-0.4,2-0.9c0.5-0.6,0.5-1.5-0.1-2L37,45.1z"/>
			<path class="st0" d="M11.1,49.1c0.5,0.6,1.2,0.9,2,0.9c1.6,0,3.2-0.5,4.5-1.6l0,0c-1-1-1.9-2-2.7-3.2c-0.2-0.3-0.5-0.5-0.9-0.5
				s-0.7,0.1-0.9,0.4l-1.9,2C10.7,47.6,10.6,48.5,11.1,49.1L11.1,49.1z"/>
			<path class="st0" d="M4.1,10.7L1,14.9c-0.6,0.8-0.9,1.7-0.9,2.7c0,1,0.4,2,1.2,2.6C2,20.7,3,20.9,3.9,20.7c0.9-0.2,1.9-0.2,2.9,0
				c1.4,0.3,2.9-0.5,3.4-1.9c0.8-2,2.1-3.8,3.7-5.1c0.2-0.2,0.4-0.5,0.4-0.8c0-0.3-0.1-0.6-0.3-0.9l-1.6-1.8c-1-1.1-2.5-1.8-4-1.8
				l0,0C6.8,8.5,5.2,9.3,4.1,10.7z"/>
			<path class="st0" d="M28.5,5.9l-0.1-1.2c-0.1-1.3-0.7-2.4-1.7-3.2c-1.1-0.8-2.5-0.8-3.6,0c-1,0.7-1.6,1.9-1.7,3.2l-0.1,1.2
				c0,0.5,0.1,1,0.4,1.4C22,7.6,22,7.9,22,8.2l-0.3,1.4c-0.1,0.2,0,0.5,0.1,0.7c0.2,0.2,0.4,0.3,0.6,0.3c0.8-0.1,1.7-0.2,2.6-0.2
				s1.7,0,2.6,0.1c0.2,0,0.5-0.1,0.6-0.3c0.2-0.2,0.2-0.4,0.1-0.7L28,8.2c-0.1-0.3,0-0.6,0.1-0.8C28.4,6.9,28.5,6.4,28.5,5.9z"/>
			<path class="st0" d="M25,50c3.2,0,5.8-13.4,5.8-23.8S28.2,12.3,25,12.3s-5.8,3.5-5.8,13.9S21.8,50,25,50z"/>
			<path class="st0" d="M32.7,13.8c-0.5-0.2-1-0.1-1.3,0.3c-0.4,0.4-0.5,0.9-0.3,1.4c1.1,3.1,1.5,7.1,1.5,10.7
				c0,5.5-0.6,10.9-1.7,16.3c-0.3,1.5-0.7,2.9-1.2,4.3c-0.1,0.3,0,0.7,0.2,0.9c0.3,0.2,0.6,0.2,0.9,0c5-4.3,8.6-13.7,8.6-21.5
				C39.3,19.5,36.7,15.7,32.7,13.8z"/>
			<path class="st0" d="M17.3,13.8c-0.4,0.2-0.7,0.4-1.1,0.6l0,0h0c-0.3,0.2-0.7,0.4-1,0.7l-0.1,0.1c-0.3,0.2-0.6,0.5-0.9,0.8l0,0
				c-2.2,2.2-3.5,5.5-3.5,10.2c0,7.7,3.5,17.1,8.6,21.4c0.2,0.2,0.6,0.2,0.9,0c0.3-0.2,0.4-0.6,0.2-0.9c-0.5-1.4-0.9-2.8-1.2-4.3
				c-1.1-5.3-1.7-10.8-1.7-16.3c0-3.6,0.3-7.6,1.5-10.7c0.2-0.5,0.1-1.1-0.3-1.4C18.3,13.7,17.7,13.6,17.3,13.8z"/>
			<path class="st0" d="M46,10.7c-1-1.3-2.5-2.2-4.1-2.2s-3.2,0.6-4.3,1.8L36,12.1c-0.2,0.2-0.3,0.5-0.3,0.9s0.2,0.6,0.4,0.8
				c1.6,1.3,2.9,3.1,3.7,5.1c0.6,1.4,2,2.2,3.5,1.9c1-0.3,2-0.3,2.9,0c0.9,0.2,1.9,0,2.6-0.6c0.8-0.6,1.2-1.6,1.2-2.6l0,0
				c0-1-0.3-1.9-0.9-2.7L46,10.7z"/>
		</g>
	</g>
</g>
</svg>
